# xmcd
#
# Track frame offsets:
#	150
#	15247
#	26365
#	45907
#	57262
#	77485
#	96580
#	113567
#	127885
#	147440
#
# Disc length: 2545 seconds
#
# Revision: 1
# Processed by: cddbd v1.5.2PL0 Copyright (c) Steve Scherf et al.
# Submitted via: audiograbber 1.83.01
#
DISCID=6f09ef0a
DTITLE=Minna Tasanto - Kuun Sininen Hetki 
DYEAR=1996
DGENRE=Pop
TTITLE0=Kuun Sininen Hetki 
TTITLE1=Keinu Vaan
TTITLE2=Yön Taikaa
TTITLE3=Muisto
TTITLE4=Puerto Bahia
TTITLE5=Tuomipuu
TTITLE6=Rakkauden Ruusu
TTITLE7=Jospa Oisin Hän
TTITLE8=Hän On
TTITLE9=Kun Kohdataan
EXTD=TR.
EXTT0=
EXTT1=
EXTT2=
EXTT3=
EXTT4=
EXTT5=
EXTT6=
EXTT7=
EXTT8=
EXTT9=
PLAYORDER=
